<svg width="29" height="29" viewBox="0 0 29 29" fill="none" xmlns="http://www.w3.org/2000/svg">
<path d="M26.9835 0.273438H1.57047C1.15395 0.273438 0.754498 0.438897 0.459979 0.733416C0.165459 1.02794 0 1.42739 0 1.8439V27.2569C0 27.4631 0.0406214 27.6673 0.119545 27.8579C0.198468 28.0484 0.314148 28.2216 0.459979 28.3674C0.60581 28.5132 0.778937 28.6289 0.969475 28.7078C1.16001 28.7867 1.36423 28.8274 1.57047 28.8274H15.2478V17.7627H11.5358V13.4796H15.2478V10.2673C15.1709 9.51314 15.2599 8.75128 15.5087 8.03516C15.7574 7.31904 16.1598 6.66601 16.6876 6.12187C17.2154 5.57772 17.8559 5.15565 18.5641 4.88524C19.2723 4.61483 20.0311 4.50263 20.7873 4.55653C21.8985 4.54969 23.0092 4.60689 24.1138 4.72785V8.58263H21.8438C20.0449 8.58263 19.7022 9.43925 19.7022 10.6813V13.4368H23.9853L23.4285 17.7199H19.7022V28.8274H26.9835C27.1897 28.8274 27.3939 28.7867 27.5844 28.7078C27.775 28.6289 27.9481 28.5132 28.0939 28.3674C28.2398 28.2216 28.3555 28.0484 28.4344 27.8579C28.5133 27.6673 28.5539 27.4631 28.5539 27.2569V1.8439C28.5539 1.63767 28.5133 1.43345 28.4344 1.24291C28.3555 1.05237 28.2398 0.879248 28.0939 0.733416C27.9481 0.587585 27.775 0.471906 27.5844 0.392982C27.3939 0.314059 27.1897 0.273437 26.9835 0.273438Z" fill="#B3B3B3"/>
</svg>
