<svg width="30" height="29" viewBox="0 0 30 29" fill="none" xmlns="http://www.w3.org/2000/svg">
<path d="M22.6802 5.21327C22.3413 5.21327 22.0101 5.31375 21.7283 5.502C21.4466 5.69025 21.227 5.95782 21.0973 6.27087C20.9677 6.58393 20.9337 6.9284 20.9998 7.26074C21.0659 7.59307 21.2291 7.89834 21.4687 8.13794C21.7083 8.37754 22.0136 8.54071 22.3459 8.60682C22.6783 8.67292 23.0227 8.639 23.3358 8.50933C23.6488 8.37965 23.9164 8.16007 24.1047 7.87832C24.2929 7.59658 24.3934 7.26535 24.3934 6.9265C24.3934 6.47212 24.2129 6.03636 23.8916 5.71506C23.5703 5.39377 23.1345 5.21327 22.6802 5.21327ZM29.2476 8.66829C29.2198 7.48373 28.9979 6.31174 28.5908 5.19899C28.2278 4.24691 27.6628 3.38479 26.9347 2.67197C26.2277 1.94017 25.3636 1.37873 24.4077 1.03012C23.2979 0.610603 22.1246 0.38367 20.9384 0.359099C19.425 0.273437 18.9396 0.273438 15.0563 0.273438C11.1729 0.273438 10.6875 0.273437 9.17415 0.359099C7.98795 0.38367 6.81466 0.610603 5.70485 1.03012C4.75069 1.38226 3.8873 1.94321 3.17783 2.67197C2.44603 3.37893 1.88459 4.24306 1.53598 5.19899C1.11646 6.3088 0.889529 7.48209 0.864959 8.66829C0.779297 10.1816 0.779297 10.6671 0.779297 14.5504C0.779297 18.4337 0.779297 18.9192 0.864959 20.4325C0.889529 21.6187 1.11646 22.792 1.53598 23.9018C1.88459 24.8577 2.44603 25.7219 3.17783 26.4288C3.8873 27.1576 4.75069 27.7185 5.70485 28.0707C6.81466 28.4902 7.98795 28.7171 9.17415 28.7417C10.6875 28.8274 11.1729 28.8274 15.0563 28.8274C18.9396 28.8274 19.425 28.8274 20.9384 28.7417C22.1246 28.7171 23.2979 28.4902 24.4077 28.0707C25.3636 27.7221 26.2277 27.1606 26.9347 26.4288C27.666 25.7187 28.2315 24.8558 28.5908 23.9018C28.9979 22.7891 29.2198 21.6171 29.2476 20.4325C29.2476 18.9192 29.3332 18.4337 29.3332 14.5504C29.3332 10.6671 29.3332 10.1816 29.2476 8.66829ZM26.6777 20.2612C26.6673 21.1674 26.5032 22.0654 26.1923 22.9167C25.9643 23.538 25.5982 24.0994 25.1215 24.5585C24.6584 25.0304 24.0982 25.3958 23.4797 25.6293C22.6283 25.9402 21.7304 26.1043 20.8242 26.1147C19.3965 26.1861 18.8682 26.2004 15.1134 26.2004C11.3585 26.2004 10.8303 26.2004 9.40258 26.1147C8.46157 26.1324 7.52458 25.9875 6.63285 25.6864C6.04147 25.441 5.50691 25.0765 5.06239 24.6157C4.58852 24.157 4.22696 23.5951 4.00589 22.9738C3.65733 22.1103 3.464 21.192 3.43481 20.2612C3.43481 18.8335 3.34915 18.3052 3.34915 14.5504C3.34915 10.7956 3.34915 10.2673 3.43481 8.83961C3.44121 7.91312 3.61035 6.99495 3.93451 6.12699C4.18585 5.52438 4.57164 4.9872 5.06239 4.55653C5.49614 4.06564 6.0322 3.67577 6.63285 3.41437C7.50311 3.10034 8.42032 2.9362 9.34547 2.92895C10.7732 2.92895 11.3014 2.84329 15.0563 2.84329C18.8111 2.84329 19.3393 2.84329 20.767 2.92895C21.6733 2.93935 22.5712 3.10348 23.4226 3.41437C24.0713 3.65515 24.6537 4.04662 25.1215 4.55653C25.5894 4.99508 25.955 5.53126 26.1923 6.12699C26.5096 6.99636 26.6738 7.91415 26.6777 8.83961C26.7491 10.2673 26.7634 10.7956 26.7634 14.5504C26.7634 18.3052 26.7491 18.8335 26.6777 20.2612ZM15.0563 7.22632C13.6083 7.22914 12.1937 7.66109 10.9911 8.46758C9.78856 9.27408 8.85203 10.4189 8.29988 11.7575C7.74772 13.096 7.60472 14.5682 7.88893 15.988C8.17314 17.4078 8.87182 18.7115 9.89667 19.7343C10.9215 20.7572 12.2266 21.4533 13.6469 21.7348C15.0673 22.0162 16.5392 21.8703 17.8766 21.3156C19.2141 20.7608 20.3571 19.8221 21.1613 18.618C21.9654 17.4138 22.3946 15.9984 22.3946 14.5504C22.3965 13.5869 22.2079 12.6324 21.8396 11.7421C21.4713 10.8517 20.9306 10.0429 20.2486 9.36222C19.5666 8.68156 18.7568 8.14244 17.8657 7.77588C16.9746 7.40932 16.0198 7.22255 15.0563 7.22632ZM15.0563 19.3046C14.116 19.3046 13.1968 19.0258 12.415 18.5034C11.6331 17.981 11.0238 17.2385 10.6639 16.3698C10.3041 15.501 10.2099 14.5451 10.3934 13.6229C10.5768 12.7007 11.0296 11.8535 11.6945 11.1887C12.3594 10.5238 13.2065 10.071 14.1288 9.88752C15.051 9.70408 16.0069 9.79823 16.8756 10.1581C17.7443 10.5179 18.4869 11.1273 19.0093 11.9091C19.5317 12.6909 19.8105 13.6101 19.8105 14.5504C19.8105 15.1747 19.6875 15.793 19.4486 16.3698C19.2097 16.9466 18.8595 17.4707 18.418 17.9121C17.9765 18.3536 17.4524 18.7038 16.8756 18.9427C16.2988 19.1817 15.6806 19.3046 15.0563 19.3046Z" fill="#B3B3B3"/>
</svg>
