<svg width="29" height="25" viewBox="0 0 29 25" fill="none" xmlns="http://www.w3.org/2000/svg">
<path d="M28.9436 3.69884C27.8704 4.1644 26.7355 4.47217 25.5742 4.61256C26.7994 3.88061 27.7176 2.72912 28.1583 1.37169C27.007 2.05708 25.7466 2.53997 24.4321 2.79939C23.5534 1.8465 22.3833 1.21221 21.1052 0.995995C19.8272 0.779777 18.5136 0.993863 17.3704 1.60468C16.2271 2.21549 15.319 3.18848 14.7883 4.37105C14.2576 5.55361 14.1345 6.87887 14.4382 8.13897C12.1102 8.02122 9.83306 7.41506 7.75464 6.35986C5.67622 5.30467 3.84303 3.82403 2.37415 2.01415C1.85894 2.91384 1.58823 3.93272 1.58891 4.96948C1.58709 5.9323 1.82337 6.88062 2.27671 7.73003C2.73006 8.57943 3.38641 9.30356 4.18732 9.83793C3.25643 9.8126 2.34543 9.56281 1.53181 9.1098V9.18119C1.53878 10.5302 2.0115 11.8354 2.87001 12.876C3.72851 13.9166 4.92009 14.6288 6.2432 14.892C5.73388 15.047 5.20509 15.1287 4.67274 15.1347C4.30423 15.1304 3.93665 15.097 3.57341 15.0347C3.95019 16.1952 4.67934 17.2093 5.65938 17.936C6.63943 18.6628 7.82163 19.0659 9.04149 19.0894C6.98161 20.7102 4.43843 21.5948 1.81734 21.6021C1.34012 21.6037 0.863266 21.5751 0.389648 21.5165C3.06576 23.2444 6.1844 24.1616 9.36986 24.1577C11.5681 24.1805 13.7488 23.7651 15.7847 22.9357C17.8205 22.1063 19.6707 20.8796 21.2272 19.3271C22.7836 17.7746 24.0151 15.9276 24.8497 13.8939C25.6844 11.8601 26.1054 9.68049 26.0882 7.48223C26.0882 7.23952 26.0882 6.98254 26.0882 6.72555C27.2085 5.89008 28.1747 4.86587 28.9436 3.69884Z" fill="#B3B3B3"/>
</svg>
